# xmcd CD database file
#
# Track frame offsets:
#	150
#	13937
#	27722
#	43331
#	58914
#	73848
#	88711
#	100404
#	112173
#	133280
#	154239
#	171734
#	189302
#	206266
#	223172
#	242763
#	262419
#	282271
#	302097
#	317128
#	332297
#
# Disc length: 4458 seconds
#
# Revision: 0
# Processed by: cddbd v1.4PL0 Copyright (c) Steve Scherf et al.
# Submitted via: CDex 1.50
#
DISCID=58116815
DTITLE=Hal Leonard Jazz Play along - Volume 1 - Duke Ellington - 10 Duke Ellington Classic
DYEAR=1900
DGENRE=Jazz
TTITLE0=Caravan (Split)
TTITLE1=Caravan (Stereo)
TTITLE2=Don't Get Around Much Anymore (Split)
TTITLE3=Don't Get Around Much Anymore (Stereo)
TTITLE4=In a Mellow Tone (Split)
TTITLE5=In a Mellow Tone (Stereo)
TTITLE6=In a Sentimental Mood (Split)
TTITLE7=In a Sentimental Mood (Stereo)
TTITLE8=It Don't Mean a Thing (If It Ain't Got That Swing) (Split)
TTITLE9=It Don't Mean a Thing (If It Ain't Got That Swing) (Stereo)
TTITLE10=Perdido (Split)
TTITLE11=Perdido (Stereo)
TTITLE12=Prelude to a Kiss (Split)
TTITLE13=Prelude to a Kiss (Stereo)
TTITLE14=Satin Doll (Split)
TTITLE15=Satin Doll (Stereo)
TTITLE16=Sophisticated Lady (Split)
TTITLE17=Sophisticated Lady (Stereo)
TTITLE18=Take the "A" Train (Split)
TTITLE19=Take the "A" Train (Stereo)
TTITLE20=Bb Tuning Notes
EXTD=
EXTT0=
EXTT1=
EXTT2=
EXTT3=
EXTT4=
EXTT5=
EXTT6=
EXTT7=
EXTT8=
EXTT9=
EXTT10=
EXTT11=
EXTT12=
EXTT13=
EXTT14=
EXTT15=
EXTT16=
EXTT17=
EXTT18=
EXTT19=
EXTT20=
PLAYORDER=
